<?xml version="1.0" encoding="utf-8"?>
<!-- Generator: Adobe Illustrator 16.0.0, SVG Export Plug-In . SVG Version: 6.00 Build 0)  -->
<!DOCTYPE svg PUBLIC "-//W3C//DTD SVG 1.1//EN" "http://www.w3.org/Graphics/SVG/1.1/DTD/svg11.dtd">
<svg version="1.1" id="Layer_1" xmlns="http://www.w3.org/2000/svg" xmlns:xlink="http://www.w3.org/1999/xlink" x="0px" y="0px"
	 width="507.893px" height="443.246px" viewBox="203.036 65.467 507.893 443.246"
	 enable-background="new 203.036 65.467 507.893 443.246" xml:space="preserve">
<path fill="#93B550" d="M479.314,407.862c0.424-1.12,1.41-3.093,3.678-6.503l0.451-0.686c2.766-4.216,4.291-6.543,5.486-12.607
	c0.195-0.972,1.375-3.431,2.348-4.445c3.307-3.359,6.805-14.823,4.537-21.633c-0.084-0.235-0.27-0.686-0.574-1.286
	c-0.967-1.938-1.162-2.777-1.15-3.148c0.518-7.292-0.211-14.104-2.146-20.233c-2.773-8.93-10.875-16.998-20.637-20.559
	c-5.916-2.173-11.244-2.471-16.189-2.471c-4.873,0-10.195,0.298-16.08,2.466c-9.902,3.598-17.828,11.468-20.68,20.524
	c-1.933,6.063-2.657,12.877-2.16,20.296c0.012,0.363-0.174,1.196-1.143,3.128c-0.3,0.602-0.49,1.057-0.59,1.343
	c-2.236,6.69,1.23,18.157,4.506,21.532c1.024,1.063,2.195,3.507,2.391,4.483c1.2,6.06,2.717,8.371,5.471,12.567l0.617,0.936
	c2.148,3.235,3.098,5.16,3.516,6.26c-7.998,4.837-36.77,23.389-36.77,38.012c-0.004,4.678-0.008,12.508,9.938,17.847
	c8.925,4.789,25.133,7.021,51.02,7.021c25.885,0,42.094-2.231,51.023-7.021c9.945-5.343,9.939-13.177,9.936-18.121
	C516.115,432.012,487.296,412.863,479.314,407.862z M500.708,453.501c-6.982,3.745-22.307,5.649-45.551,5.649
	c-23.246,0-38.57-1.901-45.551-5.646c-3.845-2.067-3.845-3.702-3.842-7.929c0-6.566,24.959-25.019,31.84-28.321
	c2.402-1.049,4.133-2.981,4.857-5.447c1.533-5.195-1.682-11.065-5.479-16.775l-0.482-0.736c-2.453-3.741-3.037-4.63-3.801-8.479
	c-0.563-2.845-2.658-7.415-5.188-10.001c-1.148-1.689-2.754-8.072-2.113-9.937c0.785-1.578,2.627-5.261,2.332-9.121
	c-0.402-5.913,0.152-11.284,1.645-15.974c1.746-5.547,7.217-10.83,13.623-13.161c4.42-1.626,8.404-1.761,12.178-1.761
	c3.709,0,7.705,0.135,12.145,1.766c6.398,2.335,11.85,7.609,13.57,13.16c1.486,4.689,2.061,10.204,1.65,15.93
	c-0.271,3.749,1.414,7.3,2.371,9.212c0.51,2.24-1.021,8.229-1.938,9.627c-2.748,2.869-4.834,7.415-5.398,10.264
	c-0.762,3.861-1.283,4.658-3.814,8.507l-0.561,0.857c-3.703,5.562-6.912,11.428-5.383,16.614c0.734,2.471,2.459,4.403,4.781,5.407
	c14.4,7.129,31.719,25.765,31.936,28.642C504.548,449.802,504.548,451.436,500.708,453.501z"/>
<path fill="#18B7AC" d="M597.665,296.624c0.422-1.121,1.414-3.093,3.686-6.516l0.471-0.721c2.752-4.204,4.271-6.522,5.467-12.595
	c0.184-0.94,1.377-3.427,2.326-4.415c3.307-3.35,6.816-14.818,4.555-21.623c-0.084-0.236-0.271-0.686-0.57-1.287
	c-1.041-2.081-1.174-2.896-1.168-3.16c0.52-7.292-0.203-14.105-2.131-20.241c-2.838-9.049-10.746-16.922-20.66-20.56
	c-5.92-2.16-11.24-2.455-16.18-2.455c-4.861,0-10.174,0.299-16.102,2.458c-9.896,3.622-17.818,11.5-20.664,20.536
	c-1.92,6.061-2.65,12.871-2.154,20.285c0.016,0.359-0.178,1.191-1.137,3.128c-0.318,0.641-0.518,1.12-0.594,1.359
	c-2.242,6.713,1.244,18.177,4.508,21.512c1.018,1.06,2.203,3.527,2.396,4.475c1.197,6.096,2.727,8.423,5.5,12.647l0.609,0.928
	c2.119,3.2,3.072,5.101,3.486,6.208c-7.98,4.824-36.773,23.38-36.773,37.999c-0.004,4.687-0.008,12.52,9.934,17.867
	c8.93,4.797,25.146,7.028,51.029,7.028s42.096-2.231,51.021-7.028c9.941-5.348,9.938-13.181,9.934-18.134
	C634.45,320.741,605.65,301.624,597.665,296.624z M619.042,342.258c-6.98,3.748-22.305,5.652-45.547,5.652
	c-23.244,0-38.57-1.904-45.551-5.652c-3.848-2.068-3.848-3.71-3.844-7.941c0-6.559,24.963-25.007,31.834-28.31
	c2.408-1.04,4.133-2.972,4.871-5.439c1.537-5.167-1.662-11.025-5.475-16.787l-0.451-0.688c-2.535-3.854-3.061-4.654-3.828-8.559
	c-0.58-2.833-2.666-7.383-5.193-9.977c-1.143-1.686-2.756-8.052-2.096-9.949c0.781-1.574,2.611-5.252,2.318-9.093
	c-0.396-5.916,0.16-11.292,1.646-15.985c1.74-5.527,7.207-10.814,13.6-13.154c4.443-1.617,8.43-1.753,12.207-1.753
	c3.707,0,7.695,0.136,12.129,1.75c6.396,2.347,11.863,7.635,13.592,13.16c1.479,4.686,2.041,10.205,1.625,15.982
	c-0.242,3.734,1.439,7.268,2.391,9.181c0.506,2.231-1.027,8.216-1.951,9.623c-2.758,2.876-4.834,7.435-5.387,10.256
	c-0.758,3.849-1.344,4.737-3.795,8.475l-0.617,0.944c-3.682,5.559-6.877,11.411-5.346,16.571c0.729,2.462,2.449,4.396,4.777,5.399
	c14.391,7.117,31.711,25.752,31.928,28.624C622.886,338.548,622.886,340.189,619.042,342.258z"/>
<path fill="#18B7AC" d="M387.835,352.446c9.945-5.352,9.938-13.186,9.934-18.134c0-13.555-28.808-32.692-36.788-37.693
	c0.421-1.117,1.409-3.084,3.669-6.499l0.415-0.637c2.788-4.236,4.323-6.571,5.525-12.671c0.191-0.976,1.367-3.426,2.34-4.435
	c3.303-3.347,6.805-14.806,4.55-21.596c-0.084-0.235-0.275-0.701-0.582-1.319c-0.972-1.948-1.158-2.79-1.147-3.16
	c0.511-7.184-0.239-14.189-2.151-20.229c-2.77-8.909-10.874-16.986-20.655-20.572c-5.901-2.159-11.229-2.458-16.177-2.458
	c-4.857,0-10.168,0.299-16.103,2.458c-9.888,3.623-17.811,11.492-20.662,20.536c-1.921,6.052-2.65,12.857-2.164,20.297
	c0.012,0.354-0.171,1.179-1.124,3.104c-0.33,0.674-0.538,1.184-0.593,1.367c-2.24,6.694,1.223,18.154,4.494,21.524
	c1.021,1.057,2.202,3.514,2.395,4.467c1.203,6.081,2.729,8.404,5.486,12.619l0.618,0.94c2.123,3.208,3.071,5.112,3.494,6.22
	c-7.989,4.846-36.761,23.369-36.761,38.008c-0.004,4.687-0.009,12.52,9.937,17.863c8.926,4.796,25.143,7.027,51.034,7.027
	C362.701,359.473,378.91,357.242,387.835,352.446z M287.415,334.312c0-6.412,25.157-25.105,31.848-28.314
	c2.401-1.043,4.128-2.973,4.857-5.438c1.533-5.168-1.661-11.03-5.475-16.78l-0.459-0.701c-2.521-3.85-3.047-4.65-3.82-8.551
	c-0.578-2.841-2.678-7.395-5.192-9.96c-1.144-1.69-2.745-8.069-2.075-10.001c0.837-1.702,2.585-5.244,2.287-9.049
	c-0.387-5.929,0.167-11.304,1.657-15.986c1.745-5.534,7.216-10.821,13.598-13.157c4.451-1.622,8.437-1.756,12.201-1.756
	c3.714,0,7.715,0.135,12.128,1.749c6.416,2.355,11.875,7.635,13.596,13.172c1.491,4.694,2.06,10.209,1.654,15.931
	c-0.275,3.749,1.409,7.299,2.358,9.216c0.51,2.236-1.017,8.228-1.929,9.623c-2.749,2.856-4.838,7.411-5.402,10.26
	c-0.765,3.885-1.295,4.69-3.841,8.563l-0.587,0.893c-3.669,5.55-6.854,11.396-5.322,16.548c0.732,2.466,2.462,4.395,4.777,5.395
	c14.396,7.128,31.716,25.756,31.932,28.625c0.003,3.959,0.003,5.602-3.842,7.666c-6.976,3.748-22.301,5.652-45.537,5.652
	c-23.25,0-38.583-1.904-45.56-5.652C287.411,340.189,287.411,338.548,287.415,334.312z"/>
<g>
	<path fill="#CEE0A0" d="M500.708,453.501c-6.98,3.745-22.307,5.649-45.551,5.649c-23.246,0-38.569-1.901-45.55-5.646
		c-3.845-2.067-3.845-3.702-3.842-7.929c0-6.566,24.96-25.019,31.841-28.321c2.402-1.049,4.133-2.981,4.857-5.447
		c1.533-5.195-1.684-11.065-5.48-16.775l-0.48-0.736c-2.455-3.741-3.037-4.63-3.803-8.479c-0.561-2.845-2.658-7.415-5.188-10.001
		c-1.148-1.689-2.752-8.072-2.111-9.937c0.785-1.578,2.625-5.261,2.332-9.121c-0.402-5.913,0.15-11.284,1.645-15.974
		c1.746-5.547,7.215-10.83,13.621-13.161c4.42-1.626,8.404-1.761,12.178-1.761c3.711,0,7.705,0.135,12.145,1.766
		c6.4,2.335,11.852,7.609,13.572,13.16c1.486,4.689,2.059,10.204,1.648,15.93c-0.27,3.749,1.414,7.3,2.371,9.212
		c0.51,2.24-1.02,8.229-1.936,9.627c-2.75,2.869-4.834,7.415-5.4,10.264c-0.76,3.861-1.281,4.658-3.813,8.507l-0.563,0.857
		c-3.701,5.562-6.912,11.428-5.383,16.614c0.734,2.471,2.459,4.403,4.781,5.407c14.4,7.129,31.721,25.765,31.938,28.642
		C504.548,449.802,504.548,451.436,500.708,453.501z"/>
	<path fill="#B0F4ED" d="M619.044,342.258c-6.982,3.748-22.307,5.652-45.549,5.652c-23.244,0-38.568-1.904-45.551-5.652
		c-3.848-2.068-3.848-3.71-3.844-7.941c0-6.559,24.963-25.007,31.836-28.31c2.406-1.04,4.131-2.972,4.869-5.439
		c1.537-5.167-1.66-11.025-5.475-16.787l-0.449-0.688c-2.535-3.854-3.061-4.654-3.83-8.559c-0.578-2.833-2.666-7.383-5.193-9.977
		c-1.143-1.686-2.756-8.052-2.094-9.949c0.779-1.574,2.609-5.252,2.318-9.093c-0.398-5.916,0.158-11.292,1.645-15.985
		c1.742-5.527,7.209-10.814,13.6-13.154c4.443-1.617,8.432-1.753,12.209-1.753c3.705,0,7.693,0.136,12.129,1.75
		c6.395,2.347,11.861,7.635,13.592,13.16c1.477,4.686,2.039,10.205,1.625,15.982c-0.244,3.734,1.439,7.268,2.391,9.181
		c0.506,2.231-1.027,8.216-1.953,9.623c-2.758,2.876-4.832,7.435-5.387,10.256c-0.758,3.849-1.342,4.737-3.793,8.475l-0.619,0.944
		c-3.68,5.559-6.877,11.411-5.346,16.571c0.729,2.462,2.451,4.396,4.777,5.399c14.391,7.117,31.713,25.752,31.928,28.624
		C622.888,338.548,622.888,340.189,619.044,342.258z"/>
	<path fill="#B0F4ED" d="M287.416,334.312c0-6.412,25.157-25.105,31.848-28.314c2.401-1.043,4.128-2.973,4.857-5.438
		c1.533-5.168-1.661-11.03-5.475-16.78l-0.459-0.701c-2.521-3.85-3.047-4.65-3.82-8.551c-0.578-2.841-2.678-7.395-5.192-9.96
		c-1.144-1.69-2.745-8.069-2.075-10.001c0.837-1.702,2.585-5.244,2.287-9.049c-0.387-5.929,0.167-11.304,1.657-15.986
		c1.745-5.534,7.216-10.821,13.598-13.157c4.451-1.622,8.437-1.756,12.201-1.756c3.714,0,7.715,0.135,12.128,1.749
		c6.416,2.355,11.875,7.635,13.596,13.172c1.491,4.694,2.06,10.209,1.654,15.931c-0.275,3.749,1.409,7.299,2.358,9.216
		c0.51,2.236-1.017,8.228-1.929,9.623c-2.749,2.856-4.838,7.411-5.402,10.26c-0.765,3.885-1.295,4.69-3.841,8.563l-0.587,0.893
		c-3.669,5.55-6.854,11.396-5.322,16.548c0.732,2.466,2.462,4.395,4.777,5.395c14.396,7.128,31.716,25.756,31.932,28.625
		c0.003,3.959,0.003,5.602-3.842,7.666c-6.976,3.748-22.301,5.652-45.537,5.652c-23.25,0-38.583-1.904-45.56-5.652
		C287.412,340.189,287.412,338.548,287.416,334.312z"/>
</g>
<path fill="#A5A5A5" d="M576.82,383.428c-12.867,12.265-33.434,22.581-57.92,29.043c-3.088,0.813-4.932,3.981-4.115,7.068
	c0.686,2.595,3.027,4.308,5.586,4.308c0.49,0,0.988-0.063,1.482-0.19c26.721-7.058,48.484-18.073,62.947-31.856
	c2.311-2.204,2.402-5.865,0.199-8.176C582.79,381.312,579.134,381.229,576.82,383.428z"/>
<path fill="#A5A5A5" d="M391.404,412.471c-24.479-6.462-45.048-16.778-57.909-29.043c-2.312-2.199-5.973-2.112-8.177,0.199
	c-2.203,2.312-2.115,5.969,0.195,8.177c14.456,13.782,36.224,24.8,62.943,31.855c0.493,0.127,0.992,0.191,1.479,0.191
	c2.563,0,4.9-1.713,5.59-4.307C396.339,416.453,394.493,413.289,391.404,412.471z"/>
<path fill="#A5A5A5" d="M391.066,293.626c39.207-10.451,88.964-10.451,128.166,0c0.502,0.136,0.998,0.199,1.494,0.199
	c2.559,0,4.895-1.709,5.582-4.299c0.824-3.084-1.014-6.252-4.096-7.076c-20.852-5.563-43.416-8.38-67.055-8.38
	c-23.648,0-46.212,2.821-67.068,8.38c-3.088,0.824-4.92,3.988-4.101,7.076C384.815,292.615,387.982,294.451,391.066,293.626z"/>
<path fill="#93B550" d="M255.122,143.27c10.094,0,18.275-8.183,18.275-18.276s-8.184-18.275-18.275-18.274
	c-10.023,0-18.176,8.074-18.273,18.097c-0.066,10.125,8.088,18.388,18.215,18.454C255.083,143.27,255.102,143.27,255.122,143.27z
	 M255.122,121.602c1.875,0,3.395,1.519,3.395,3.393s-1.52,3.393-3.395,3.393c-1.873,0-3.393-1.519-3.393-3.393l0,0
	c-0.098-1.872,1.338-3.468,3.211-3.567c0.061-0.003,0.121-0.005,0.182-0.005V121.602z M303.579,143.27
	c10.092,0,18.275-8.182,18.275-18.275c0-10.093-8.184-18.275-18.275-18.275c-10.094,0-18.275,8.182-18.275,18.275l0,0
	C285.337,135.075,293.499,143.238,303.579,143.27z M303.579,121.602c1.873,0,3.393,1.519,3.393,3.393s-1.52,3.393-3.393,3.393
	c-1.875,0-3.393-1.519-3.393-3.393l0,0c-0.1-1.872,1.338-3.468,3.209-3.567c0.061-0.003,0.123-0.005,0.184-0.005V121.602z
	 M351.618,143.27c10.092,0,18.275-8.183,18.273-18.276c0-10.093-8.182-18.275-18.275-18.274c-10.023,0-18.176,8.074-18.273,18.097
	c-0.066,10.125,8.09,18.388,18.215,18.454C351.577,143.27,351.598,143.27,351.618,143.27z M351.618,121.602
	c1.873,0,3.393,1.519,3.393,3.393s-1.52,3.393-3.393,3.393c-1.875,0-3.393-1.519-3.393-3.393l0,0
	c-0.1-1.872,1.338-3.468,3.209-3.567c0.061-0.003,0.123-0.005,0.184-0.005V121.602z"/>
<path fill="#A5A5A5" d="M378.227,493.832H238.098c-11.145,0.098-20.26-8.855-20.359-20.002c0-0.059,0-0.119,0-0.178V176.427h478.307
	v153.344c0,4.109,3.332,7.441,7.441,7.441s7.441-3.332,7.441-7.441V100.529c-0.033-19.351-15.711-35.029-35.063-35.062H238.098
	c-19.352,0.033-35.029,15.711-35.063,35.062v373.123c0.033,19.35,15.711,35.029,35.063,35.061h140.129
	c4.109,0,7.439-3.33,7.439-7.439S382.337,493.832,378.227,493.832z M238.098,80.349h437.768c11.146,0,20.18,9.035,20.18,20.18
	v61.017H217.739v-61.017c0-11.145,9.035-20.18,20.18-20.181C237.977,80.348,238.038,80.349,238.098,80.349z"/>
</svg>
