<?xml version="1.0" encoding="iso-8859-1"?>
<!-- Generator: Adobe Illustrator 19.0.0, SVG Export Plug-In . SVG Version: 6.00 Build 0)  -->
<svg version="1.1" id="Layer_1" xmlns="http://www.w3.org/2000/svg" xmlns:xlink="http://www.w3.org/1999/xlink" x="0px" y="0px"
	 viewBox="0 0 512 512" style="enable-background:new 0 0 512 512;" xml:space="preserve">
<g>
	<rect x="33.959" y="88.816" style="fill:#AED5F3;" width="444.082" height="292.571"/>
	<rect x="256.146" y="88.816" style="fill:#AED5F3;" width="221.895" height="292.571"/>
	<rect x="66.424" y="130.612" style="fill:#AED5F3;" width="377.657" height="250.775"/>
	<rect x="255.028" y="130.612" style="fill:#AED5F3;" width="189.053" height="250.775"/>
	<rect y="376.163" style="fill:#AED5F3;" width="512" height="47.02"/>
	<rect x="256" y="376.163" style="fill:#AED5F3;" width="256" height="47.02"/>
</g>
<rect x="33.959" y="88.816" style="fill:#565659;" width="444.082" height="292.571"/>
<rect x="256.146" y="88.816" style="fill:#333333;" width="221.895" height="292.571"/>
<rect x="66.424" y="130.612" style="fill:#FFE98F;" width="377.657" height="250.775"/>
<rect x="255.028" y="130.612" style="fill:#FFDA44;" width="189.053" height="250.775"/>
<rect y="376.163" style="fill:#858585;" width="512" height="47.02"/>
<rect x="256" y="376.163" style="fill:#565659;" width="256" height="47.02"/>
<g>
	<path style="fill:#FFFFFF;" d="M108.689,252.423c0-5.974,1.124-11.857,3.378-17.647c2.252-5.791,5.537-10.982,9.858-15.579
		c4.319-4.594,9.558-8.317,15.716-11.167c6.157-2.848,13.188-4.274,21.094-4.274c9.466,0,17.668,1.954,24.609,5.86
		c6.938,3.908,12.108,9.078,15.51,15.51l-20.543,14.614c-0.92-2.39-2.138-4.365-3.654-5.929c-1.516-1.562-3.195-2.802-5.032-3.722
		c-1.84-0.917-3.746-1.562-5.722-1.93c-1.978-0.367-3.884-0.552-5.721-0.552c-3.861,0-7.193,0.759-9.995,2.275
		c-2.805,1.516-5.101,3.494-6.893,5.929c-1.792,2.437-3.126,5.193-3.998,8.271c-0.875,3.08-1.31,6.135-1.31,9.168
		c0,3.402,0.505,6.665,1.517,9.789c1.01,3.126,2.481,5.883,4.412,8.272c1.93,2.391,4.296,4.298,7.1,5.722
		c2.802,1.426,5.95,2.137,9.444,2.137c1.838,0,3.723-0.207,5.653-0.621s3.792-1.102,5.584-2.068
		c1.792-0.965,3.399-2.206,4.825-3.723c1.424-1.516,2.551-3.378,3.377-5.584l21.921,13.098c-1.471,3.585-3.701,6.803-6.686,9.651
		c-2.987,2.85-6.39,5.239-10.202,7.169c-3.815,1.93-7.906,3.401-12.27,4.412c-4.367,1.01-8.617,1.517-12.753,1.517
		c-7.262,0-13.902-1.448-19.922-4.344c-6.021-2.895-11.215-6.732-15.579-11.512c-4.367-4.778-7.745-10.202-10.133-16.269
		C109.883,264.83,108.689,258.674,108.689,252.423z"/>
	<path style="fill:#FFFFFF;" d="M209.332,302.193v-97.886h44.945c4.778,0,9.19,0.99,13.236,2.964
		c4.044,1.978,7.513,4.549,10.408,7.721c2.895,3.17,5.17,6.803,6.825,10.892c1.654,4.091,2.482,8.203,2.482,12.339
		c0,5.7-1.241,11.008-3.723,15.924c-2.482,4.917-5.929,8.94-10.34,12.063l20.681,35.983h-30.331l-17.234-30.055h-10.064v30.055
		h-26.884V302.193z M236.217,248.7h16.958c1.654,0,3.192-0.917,4.618-2.757c1.423-1.838,2.137-4.412,2.137-7.721
		c0-3.399-0.827-5.997-2.481-7.79c-1.655-1.792-3.309-2.689-4.963-2.689h-16.268V248.7H236.217z"/>
	<path style="fill:#FFFFFF;" d="M376.426,302.193V250.63l-16.407,36.259H345.68l-16.407-36.259v51.563h-26.884v-97.886h29.367
		l21.094,46.048l21.231-46.048h29.229v97.886H376.426z"/>
</g>
<g>
</g>
<g>
</g>
<g>
</g>
<g>
</g>
<g>
</g>
<g>
</g>
<g>
</g>
<g>
</g>
<g>
</g>
<g>
</g>
<g>
</g>
<g>
</g>
<g>
</g>
<g>
</g>
<g>
</g>
</svg>
